<?xml version="1.0" encoding="UTF-8"?>
<!DOCTYPE svg PUBLIC "-//W3C//DTD SVG 1.1//EN" "http://www.w3.org/Graphics/SVG/1.1/DTD/svg11.dtd">
<svg version="1.2" width="67.7mm" height="21.9mm" viewBox="0 0 6770 2190" preserveAspectRatio="xMidYMid" fill-rule="evenodd" stroke-width="28.222" stroke-linejoin="round" xmlns="http://www.w3.org/2000/svg" xmlns:ooo="http://xml.openoffice.org/svg/export" xmlns:xlink="http://www.w3.org/1999/xlink" xmlns:presentation="http://sun.com/xmlns/staroffice/presentation" xmlns:smil="http://www.w3.org/2001/SMIL20/" xmlns:anim="urn:oasis:names:tc:opendocument:xmlns:animation:1.0" xmlns:svg="urn:oasis:names:tc:opendocument:xmlns:svg-compatible:1.0" xml:space="preserve">
 <defs class="ClipPathGroup">
  <clipPath id="presentation_clip_path" clipPathUnits="userSpaceOnUse">
   <rect x="0" y="0" width="6770" height="2190"/>
  </clipPath>
  <clipPath id="presentation_clip_path_shrink" clipPathUnits="userSpaceOnUse">
   <rect x="6" y="2" width="6757" height="2186"/>
  </clipPath>
 </defs>
 <defs class="TextShapeIndex">
  <g ooo:slide="id1" ooo:id-list="id3 id4 id5 id6 id7 id8 id9 id10 id11 id12 id13 id14 id15 id16 id17 id18 id19 id20 id21 id22 id23 id24 id25 id26 id27 id28 id29 id30 id31 id32 id33 id34 id35 id36 id37 id38 id39 id40 id41 id42 id43 id44 id45 id46 id47 id48 id49 id50 id51 id52 id53 id54 id55 id56 id57 id58 id59 id60 id61 id62"/>
 </defs>
 <defs class="EmbeddedBulletChars">
  <g id="bullet-char-template-57356" transform="scale(0.00048828125,-0.00048828125)">
   <path d="M 580,1141 L 1163,571 580,0 -4,571 580,1141 Z"/>
  </g>
  <g id="bullet-char-template-57354" transform="scale(0.00048828125,-0.00048828125)">
   <path d="M 8,1128 L 1137,1128 1137,0 8,0 8,1128 Z"/>
  </g>
  <g id="bullet-char-template-10146" transform="scale(0.00048828125,-0.00048828125)">
   <path d="M 174,0 L 602,739 174,1481 1456,739 174,0 Z M 1358,739 L 309,1346 659,739 1358,739 Z"/>
  </g>
  <g id="bullet-char-template-10132" transform="scale(0.00048828125,-0.00048828125)">
   <path d="M 2015,739 L 1276,0 717,0 1260,543 174,543 174,936 1260,936 717,1481 1274,1481 2015,739 Z"/>
  </g>
  <g id="bullet-char-template-10007" transform="scale(0.00048828125,-0.00048828125)">
   <path d="M 0,-2 C -7,14 -16,27 -25,37 L 356,567 C 262,823 215,952 215,954 215,979 228,992 255,992 264,992 276,990 289,987 310,991 331,999 354,1012 L 381,999 492,748 772,1049 836,1024 860,1049 C 881,1039 901,1025 922,1006 886,937 835,863 770,784 769,783 710,716 594,584 L 774,223 C 774,196 753,168 711,139 L 727,119 C 717,90 699,76 672,76 641,76 570,178 457,381 L 164,-76 C 142,-110 111,-127 72,-127 30,-127 9,-110 8,-76 1,-67 -2,-52 -2,-32 -2,-23 -1,-13 0,-2 Z"/>
  </g>
  <g id="bullet-char-template-10004" transform="scale(0.00048828125,-0.00048828125)">
   <path d="M 285,-33 C 182,-33 111,30 74,156 52,228 41,333 41,471 41,549 55,616 82,672 116,743 169,778 240,778 293,778 328,747 346,684 L 369,508 C 377,444 397,411 428,410 L 1163,1116 C 1174,1127 1196,1133 1229,1133 1271,1133 1292,1118 1292,1087 L 1292,965 C 1292,929 1282,901 1262,881 L 442,47 C 390,-6 338,-33 285,-33 Z"/>
  </g>
  <g id="bullet-char-template-9679" transform="scale(0.00048828125,-0.00048828125)">
   <path d="M 813,0 C 632,0 489,54 383,161 276,268 223,411 223,592 223,773 276,916 383,1023 489,1130 632,1184 813,1184 992,1184 1136,1130 1245,1023 1353,916 1407,772 1407,592 1407,412 1353,268 1245,161 1136,54 992,0 813,0 Z"/>
  </g>
  <g id="bullet-char-template-8226" transform="scale(0.00048828125,-0.00048828125)">
   <path d="M 346,457 C 273,457 209,483 155,535 101,586 74,649 74,723 74,796 101,859 155,911 209,963 273,989 346,989 419,989 480,963 531,910 582,859 608,796 608,723 608,648 583,586 532,535 482,483 420,457 346,457 Z"/>
  </g>
  <g id="bullet-char-template-8211" transform="scale(0.00048828125,-0.00048828125)">
   <path d="M -4,459 L 1135,459 1135,606 -4,606 -4,459 Z"/>
  </g>
  <g id="bullet-char-template-61548" transform="scale(0.00048828125,-0.00048828125)">
   <path d="M 173,740 C 173,903 231,1043 346,1159 462,1274 601,1332 765,1332 928,1332 1067,1274 1183,1159 1299,1043 1357,903 1357,740 1357,577 1299,437 1183,322 1067,206 928,148 765,148 601,148 462,206 346,322 231,437 173,577 173,740 Z"/>
  </g>
 </defs>
 <g>
  <g id="id2" class="Master_Slide">
   <g id="bg-id2" class="Background"/>
   <g id="bo-id2" class="BackgroundObjects"/>
  </g>
 </g>
 <g class="SlideGroup">
  <g>
   <g id="container-id1">
    <g id="id1" class="Slide" clip-path="url(#presentation_clip_path)">
     <g class="Page">
      <g class="com.sun.star.drawing.PolyPolygonShape">
       <g id="id3">
        <rect class="BoundingBox" stroke="none" fill="none" x="-1" y="-1" width="6773" height="2193"/>
        <g>
         <defs>
          <linearGradient id="gradient1" x1="372" y1="-645" x2="6398" y2="2835" gradientUnits="userSpaceOnUse">
           <stop offset="0" style="stop-color:rgb(237,114,33)"/>
           <stop offset="1" style="stop-color:rgb(0,0,0)"/>
          </linearGradient>
         </defs>
         <path style="fill:url(#gradient1)" d="M 0,2190 L 0,0 6770,0 6770,2190 0,2190 Z"/>
        </g>
        <path fill="none" stroke="rgb(0,0,0)" d="M 0,2190 L 0,0 6770,0 6770,2190 0,2190 Z"/>
       </g>
      </g>
      <g class="Group">
       <g class="com.sun.star.drawing.PolyPolygonShape">
        <g id="id4">
         <rect class="BoundingBox" stroke="none" fill="none" x="3111" y="659" width="216" height="336"/>
         <path fill="rgb(255,255,255)" stroke="none" d="M 3248,723 L 3184,723 3184,660 3248,660 3248,723 Z M 3325,993 L 3111,993 3111,952 3194,952 3194,798 3120,798 3120,757 3242,757 3242,952 3325,952 3325,993 Z"/>
        </g>
       </g>
       <g class="Group">
        <g class="com.sun.star.drawing.PolyPolygonShape">
         <g id="id5">
          <rect class="BoundingBox" stroke="none" fill="none" x="1407" y="659" width="210" height="336"/>
          <path fill="rgb(255,255,255)" stroke="none" d="M 1616,993 L 1407,993 1407,952 1487,952 1487,701 1414,701 1414,660 1536,660 1536,952 1616,952 1616,993 Z"/>
         </g>
        </g>
        <g class="com.sun.star.drawing.PolyPolygonShape">
         <g id="id6">
          <rect class="BoundingBox" stroke="none" fill="none" x="1675" y="750" width="227" height="251"/>
          <path fill="rgb(255,255,255)" stroke="none" d="M 1900,874 L 1900,889 1898,903 1895,916 1893,922 1891,928 1888,934 1886,940 1883,945 1879,951 1876,956 1872,961 1867,966 1863,970 1855,977 1847,983 1843,986 1839,988 1834,990 1829,992 1820,995 1810,998 1799,999 1788,999 1777,999 1767,998 1756,995 1747,992 1742,990 1738,988 1733,986 1729,983 1725,980 1721,977 1713,970 1708,966 1704,961 1700,956 1697,951 1693,945 1690,940 1688,934 1685,928 1683,922 1681,916 1678,903 1676,889 1676,875 1676,861 1678,847 1681,834 1683,828 1685,822 1688,816 1690,810 1693,805 1697,799 1700,794 1704,789 1708,784 1713,780 1721,773 1725,770 1729,767 1733,764 1737,762 1742,760 1747,758 1756,755 1767,753 1777,751 1788,751 1799,751 1810,753 1820,755 1830,758 1834,760 1839,762 1843,764 1847,767 1851,770 1855,773 1863,780 1867,784 1872,789 1876,794 1879,799 1883,805 1886,810 1888,816 1891,822 1893,828 1895,834 1898,847 1900,860 1900,874 Z M 1825,948 L 1828,944 1831,941 1834,937 1837,933 1839,929 1841,925 1845,916 1847,906 1849,896 1851,886 1851,875 1851,864 1849,854 1848,845 1846,840 1845,836 1843,832 1842,828 1840,824 1837,821 1835,817 1833,814 1830,811 1827,808 1823,805 1818,802 1814,799 1809,797 1804,795 1799,794 1793,793 1788,793 1782,793 1777,794 1772,794 1767,795 1763,797 1759,798 1755,800 1751,802 1745,809 1742,813 1739,817 1737,821 1735,825 1731,834 1729,843 1727,853 1725,863 1725,874 1725,885 1727,896 1728,905 1730,910 1731,914 1733,918 1734,922 1736,926 1739,929 1741,933 1743,936 1746,939 1749,942 1753,945 1758,949 1762,951 1767,953 1772,955 1777,956 1783,957 1788,957 1793,957 1799,956 1804,956 1808,955 1813,954 1817,952 1821,950 1825,948 Z"/>
         </g>
        </g>
        <g class="com.sun.star.drawing.PolyPolygonShape">
         <g id="id7">
          <rect class="BoundingBox" stroke="none" fill="none" x="1972" y="756" width="199" height="245"/>
          <path fill="rgb(255,255,255)" stroke="none" d="M 2169,993 L 2126,993 2124,959 2124,961 2124,963 2123,966 2122,967 2121,969 2120,971 2119,973 2118,975 2116,977 2115,978 2113,980 2111,982 2106,985 2101,988 2096,991 2090,993 2085,995 2079,996 2074,998 2069,999 2063,999 2058,999 2048,999 2039,998 2031,996 2027,995 2023,993 2019,992 2016,990 2012,988 2009,986 2005,983 2002,981 1999,978 1996,975 1993,972 1990,969 1988,965 1986,962 1984,958 1982,954 1980,951 1978,947 1976,938 1974,930 1973,920 1972,911 1972,757 2021,757 2021,905 2021,911 2022,917 2023,922 2024,927 2026,932 2028,936 2030,940 2033,943 2036,946 2039,949 2043,951 2047,953 2051,954 2056,955 2061,956 2067,956 2069,956 2072,955 2075,955 2077,955 2080,954 2082,953 2085,952 2087,951 2089,950 2092,949 2094,947 2096,946 2100,942 2104,938 2108,933 2112,929 2114,923 2117,918 2118,912 2120,906 2120,900 2121,893 2121,757 2169,757 2169,993 Z"/>
         </g>
        </g>
        <g class="com.sun.star.drawing.PolyPolygonShape">
         <g id="id8">
          <rect class="BoundingBox" stroke="none" fill="none" x="2239" y="659" width="217" height="342"/>
          <path fill="rgb(255,255,255)" stroke="none" d="M 2455,993 L 2411,993 2410,964 2409,966 2409,968 2408,969 2407,971 2406,973 2405,975 2404,976 2403,978 2401,980 2399,981 2397,983 2395,984 2391,987 2386,989 2381,992 2375,994 2370,995 2365,997 2359,998 2354,999 2349,999 2343,999 2333,999 2323,998 2314,995 2309,994 2305,992 2300,990 2296,988 2292,986 2288,984 2284,981 2281,978 2277,975 2274,971 2269,967 2266,962 2262,957 2259,952 2256,947 2253,941 2250,936 2248,930 2244,917 2242,904 2240,890 2239,875 2240,860 2242,846 2244,833 2246,826 2248,820 2251,814 2253,809 2256,804 2259,798 2263,794 2266,789 2270,785 2274,780 2282,773 2290,767 2298,762 2307,758 2311,757 2316,755 2320,754 2325,753 2335,751 2344,751 2350,751 2355,752 2361,752 2366,753 2371,755 2376,756 2381,758 2386,761 2391,763 2395,766 2398,768 2400,769 2401,771 2402,772 2403,774 2404,775 2405,776 2405,778 2406,779 2406,781 2406,782 2406,660 2455,660 2455,993 Z M 2391,942 L 2393,939 2395,936 2397,934 2398,930 2400,927 2402,923 2404,915 2406,907 2407,897 2408,887 2409,875 2408,864 2407,853 2405,843 2404,839 2403,834 2401,830 2399,826 2397,822 2395,819 2393,815 2390,812 2387,809 2385,806 2381,803 2377,801 2373,798 2368,797 2364,795 2359,794 2355,793 2350,793 2344,794 2339,794 2336,795 2334,796 2331,796 2329,797 2327,798 2324,800 2320,802 2315,806 2311,809 2309,812 2306,815 2304,819 2301,822 2299,826 2297,829 2296,833 2294,837 2292,846 2290,855 2289,864 2289,875 2289,886 2290,896 2292,905 2294,914 2296,918 2297,922 2299,926 2301,929 2303,933 2306,936 2308,939 2311,942 2313,944 2315,946 2317,947 2319,949 2321,950 2323,951 2326,952 2328,953 2331,954 2333,955 2338,956 2344,957 2350,957 2355,957 2360,956 2365,955 2370,953 2375,951 2380,948 2385,945 2391,942 Z"/>
         </g>
        </g>
        <g class="com.sun.star.drawing.PolyPolygonShape">
         <g id="id9">
          <rect class="BoundingBox" stroke="none" fill="none" x="2542" y="659" width="217" height="342"/>
          <path fill="rgb(255,255,255)" stroke="none" d="M 2757,875 L 2757,890 2755,904 2753,917 2749,930 2746,936 2744,941 2741,947 2738,952 2734,957 2731,962 2727,967 2723,972 2719,975 2716,978 2712,981 2708,984 2704,986 2700,989 2696,991 2692,992 2688,994 2683,995 2674,998 2664,999 2653,999 2648,999 2643,999 2637,998 2632,997 2627,995 2621,994 2616,992 2611,989 2606,987 2601,984 2599,983 2597,981 2596,980 2594,978 2593,976 2592,975 2590,973 2589,971 2589,969 2588,968 2587,966 2587,964 2585,993 2542,993 2542,660 2590,660 2590,782 2591,781 2591,779 2591,778 2592,776 2593,775 2594,774 2595,772 2596,771 2597,769 2599,768 2602,766 2606,763 2611,761 2616,758 2621,756 2626,755 2632,753 2637,752 2642,752 2648,751 2653,751 2663,751 2673,753 2682,755 2686,756 2691,758 2695,760 2699,762 2707,767 2715,773 2723,779 2727,784 2731,788 2735,793 2738,798 2741,803 2744,808 2746,814 2749,819 2751,826 2753,832 2755,845 2757,860 2757,875 Z M 2708,875 L 2708,864 2707,855 2705,846 2703,837 2701,833 2699,829 2697,826 2695,822 2693,819 2691,815 2688,812 2685,809 2681,806 2677,802 2672,800 2670,798 2668,797 2665,796 2663,796 2660,795 2658,794 2653,794 2647,793 2642,793 2637,794 2632,795 2627,797 2622,799 2617,802 2612,805 2606,808 2604,811 2602,813 2600,816 2598,820 2597,823 2595,827 2593,835 2591,844 2589,853 2588,864 2588,875 2589,886 2590,897 2592,907 2593,911 2594,916 2596,920 2598,924 2600,928 2602,931 2604,934 2607,938 2609,941 2612,943 2616,946 2620,949 2624,952 2629,954 2633,955 2638,956 2642,957 2647,957 2653,957 2659,956 2664,955 2666,954 2669,953 2671,952 2674,951 2676,950 2678,949 2680,947 2682,946 2684,944 2686,942 2689,939 2691,936 2694,933 2696,930 2698,926 2700,922 2701,918 2703,914 2705,905 2707,896 2708,886 2708,875 Z"/>
         </g>
        </g>
        <g class="com.sun.star.drawing.PolyPolygonShape">
         <g id="id10">
          <rect class="BoundingBox" stroke="none" fill="none" x="2846" y="750" width="200" height="245"/>
          <path fill="rgb(255,255,255)" stroke="none" d="M 3044,843 L 2995,843 2995,837 2994,832 2993,827 2992,823 2991,818 2990,816 2989,815 2988,813 2987,811 2985,809 2984,808 2983,806 2981,805 2979,803 2978,802 2976,801 2974,800 2972,799 2970,798 2968,797 2966,796 2964,796 2961,795 2957,795 2952,795 2948,795 2944,795 2941,796 2937,797 2934,799 2930,800 2927,802 2924,805 2921,807 2918,810 2915,813 2912,816 2910,819 2908,823 2906,827 2904,830 2902,836 2900,842 2898,849 2897,856 2896,863 2895,871 2895,879 2895,887 2895,993 2846,993 2846,757 2889,757 2891,790 2892,788 2892,786 2893,784 2894,782 2895,780 2896,778 2897,776 2899,774 2900,772 2902,771 2904,769 2906,768 2910,765 2915,762 2920,759 2926,757 2931,755 2937,754 2942,752 2948,752 2954,751 2960,751 2971,751 2976,752 2981,753 2985,754 2990,755 2995,757 2999,759 3003,761 3007,764 3011,766 3014,769 3018,772 3021,776 3024,779 3027,783 3031,790 3035,796 3038,804 3040,811 3042,818 3043,826 3044,834 3044,843 Z"/>
         </g>
        </g>
        <g class="com.sun.star.drawing.PolyPolygonShape">
         <g id="id11">
          <rect class="BoundingBox" stroke="none" fill="none" x="3373" y="659" width="217" height="342"/>
          <path fill="rgb(255,255,255)" stroke="none" d="M 3589,993 L 3545,993 3544,964 3543,966 3543,968 3542,969 3541,971 3540,973 3539,975 3538,976 3537,978 3535,980 3533,981 3531,983 3529,984 3525,987 3520,989 3515,992 3509,994 3504,995 3499,997 3493,998 3488,999 3483,999 3477,999 3467,999 3457,998 3448,995 3443,994 3439,992 3434,990 3430,988 3426,986 3422,984 3418,981 3415,978 3411,975 3408,971 3403,967 3400,962 3396,957 3393,952 3390,947 3387,941 3384,936 3382,930 3378,917 3376,904 3374,890 3373,875 3374,860 3376,846 3378,833 3380,826 3382,820 3385,814 3387,809 3390,804 3393,798 3397,794 3400,789 3404,785 3409,780 3416,773 3424,767 3432,762 3441,758 3445,757 3450,755 3454,754 3459,753 3469,751 3478,751 3484,751 3489,752 3495,752 3500,753 3505,755 3510,756 3515,758 3520,761 3525,763 3529,766 3532,768 3534,769 3535,771 3536,772 3537,774 3538,775 3539,776 3539,778 3540,779 3540,781 3540,782 3540,660 3589,660 3589,993 Z M 3525,942 L 3527,939 3529,936 3531,934 3532,930 3534,927 3536,923 3538,915 3540,907 3541,897 3542,887 3543,875 3542,864 3541,853 3539,843 3538,839 3537,834 3535,830 3533,826 3531,822 3529,819 3527,815 3524,812 3521,809 3519,806 3515,803 3511,801 3507,798 3502,797 3498,795 3493,794 3489,793 3484,793 3478,794 3473,794 3470,795 3468,796 3465,796 3463,797 3461,798 3458,800 3454,802 3449,806 3445,809 3443,812 3440,815 3438,819 3435,822 3433,826 3431,829 3430,833 3428,837 3426,846 3424,855 3423,864 3423,875 3423,886 3424,896 3426,905 3428,914 3430,918 3431,922 3433,926 3435,929 3437,933 3440,936 3442,939 3445,942 3447,944 3449,946 3451,947 3453,949 3455,950 3457,951 3460,952 3462,953 3465,954 3467,955 3472,956 3478,957 3484,957 3489,957 3494,956 3499,955 3504,953 3509,951 3514,948 3519,945 3525,942 Z"/>
         </g>
        </g>
        <g class="com.sun.star.drawing.PolyPolygonShape">
         <g id="id12">
          <rect class="BoundingBox" stroke="none" fill="none" x="3668" y="732" width="229" height="369"/>
          <path fill="rgb(255,255,255)" stroke="none" d="M 3896,1022 L 3895,1029 3894,1036 3894,1039 3893,1042 3892,1045 3891,1047 3889,1050 3888,1053 3886,1055 3885,1058 3883,1060 3881,1063 3879,1065 3876,1067 3872,1071 3868,1075 3863,1078 3859,1081 3854,1084 3848,1087 3842,1089 3836,1091 3824,1095 3810,1098 3794,1099 3778,1100 3763,1099 3748,1098 3735,1096 3723,1093 3718,1091 3712,1089 3707,1087 3703,1084 3698,1082 3694,1079 3690,1076 3687,1072 3682,1067 3679,1063 3675,1057 3674,1055 3673,1052 3672,1049 3671,1046 3670,1044 3669,1041 3668,1035 3668,1029 3668,1024 3669,1020 3670,1015 3671,1011 3672,1007 3674,1003 3676,1000 3678,996 3680,993 3683,990 3685,987 3688,984 3691,982 3693,981 3694,981 3696,980 3697,979 3699,979 3701,978 3699,978 3698,978 3697,977 3696,977 3695,976 3693,976 3692,975 3691,974 3689,973 3687,970 3685,968 3683,965 3681,962 3679,959 3678,956 3677,953 3676,950 3675,946 3675,943 3675,939 3675,935 3675,931 3676,928 3676,924 3678,921 3679,918 3680,915 3682,912 3684,909 3687,907 3689,904 3692,902 3695,900 3698,898 3702,896 3706,894 3702,892 3699,889 3697,886 3694,884 3692,880 3689,877 3687,874 3686,870 3684,866 3683,863 3682,859 3681,854 3680,850 3679,845 3679,836 3679,828 3680,820 3682,812 3685,805 3688,797 3692,791 3697,784 3702,778 3706,775 3709,772 3713,769 3717,766 3721,764 3725,761 3729,759 3733,758 3738,756 3743,755 3753,753 3763,751 3774,751 3782,751 3790,752 3797,753 3803,754 3809,756 3815,758 3820,761 3823,762 3825,763 3826,760 3828,758 3829,755 3831,752 3834,749 3837,747 3840,744 3843,742 3846,740 3850,738 3854,736 3858,735 3862,734 3866,733 3870,733 3875,732 3877,733 3881,733 3891,734 3891,773 3878,773 3875,773 3873,773 3871,774 3869,774 3867,775 3865,776 3864,777 3862,778 3861,779 3859,780 3858,781 3857,783 3856,784 3855,785 3855,787 3854,788 3858,793 3861,798 3863,804 3866,810 3867,816 3868,822 3869,829 3869,836 3869,840 3869,844 3869,848 3868,852 3867,856 3866,860 3864,863 3863,867 3861,871 3859,874 3855,881 3849,888 3843,895 3840,898 3837,901 3834,904 3830,907 3827,909 3823,912 3819,914 3815,916 3810,917 3806,919 3801,920 3796,921 3786,922 3774,922 3770,922 3765,922 3760,921 3755,921 3750,920 3745,918 3740,917 3735,915 3734,916 3732,916 3731,917 3730,918 3729,919 3728,919 3726,920 3725,922 3724,923 3723,924 3722,925 3721,926 3721,927 3721,928 3721,928 3720,929 3720,930 3720,930 3720,931 3720,932 3720,933 3720,934 3720,935 3720,937 3720,938 3721,939 3721,940 3721,941 3722,941 3723,942 3723,943 3724,944 3725,944 3726,945 3726,946 3727,946 3730,947 3732,948 3734,948 3737,949 3740,949 3743,950 3746,950 3749,950 3799,950 3812,950 3823,951 3834,953 3844,956 3848,957 3853,959 3857,961 3861,963 3864,965 3867,967 3870,970 3873,973 3878,978 3883,984 3885,987 3887,990 3888,993 3890,996 3891,999 3892,1002 3893,1005 3894,1009 3895,1012 3895,1015 3895,1019 3896,1022 Z M 3822,836 L 3822,831 3821,827 3820,822 3820,820 3819,818 3818,816 3817,814 3816,812 3815,810 3813,809 3812,807 3811,805 3809,804 3807,802 3805,801 3804,799 3802,798 3800,797 3798,796 3796,795 3794,794 3789,793 3784,792 3779,791 3774,791 3769,791 3764,792 3759,793 3754,794 3752,795 3750,796 3748,797 3746,798 3744,799 3742,801 3741,802 3739,804 3737,805 3736,807 3735,809 3733,810 3732,812 3731,814 3730,816 3729,818 3728,820 3728,822 3727,826 3726,831 3726,836 3726,841 3727,846 3728,850 3729,852 3729,854 3730,857 3731,859 3732,861 3734,862 3735,864 3736,866 3740,870 3743,873 3745,874 3747,875 3749,877 3751,878 3753,879 3755,879 3759,881 3764,882 3769,883 3774,883 3779,883 3784,882 3788,881 3793,879 3795,879 3797,878 3799,877 3801,875 3805,873 3808,869 3812,866 3813,864 3814,862 3816,860 3817,859 3818,857 3819,854 3819,852 3820,850 3821,848 3821,846 3822,841 3822,836 Z M 3848,1022 L 3848,1020 3848,1019 3848,1017 3848,1015 3847,1014 3847,1012 3846,1011 3846,1010 3845,1008 3845,1007 3844,1006 3843,1005 3842,1004 3841,1002 3840,1002 3838,1001 3836,999 3833,998 3831,996 3828,995 3827,995 3826,994 3824,994 3823,993 3821,993 3819,993 3815,992 3800,991 3786,991 3780,991 3738,991 3735,992 3733,993 3730,994 3728,996 3726,997 3724,999 3722,1001 3720,1003 3718,1005 3717,1007 3716,1010 3715,1012 3714,1015 3713,1017 3713,1020 3713,1022 3713,1025 3713,1028 3714,1031 3715,1034 3715,1035 3716,1037 3717,1038 3717,1039 3718,1040 3719,1041 3720,1042 3721,1043 3723,1045 3725,1047 3727,1048 3730,1050 3733,1051 3736,1052 3743,1054 3751,1056 3760,1057 3770,1058 3780,1058 3791,1058 3800,1057 3809,1056 3817,1054 3824,1052 3827,1051 3830,1049 3833,1048 3835,1046 3837,1045 3839,1043 3841,1041 3843,1038 3845,1036 3845,1034 3846,1033 3846,1032 3847,1031 3847,1029 3848,1028 3848,1027 3848,1025 3848,1022 Z"/>
         </g>
        </g>
        <g class="com.sun.star.drawing.PolyPolygonShape">
         <g id="id13">
          <rect class="BoundingBox" stroke="none" fill="none" x="3947" y="750" width="221" height="251"/>
          <path fill="rgb(255,255,255)" stroke="none" d="M 4167,892 L 3997,892 3997,899 3998,902 3998,906 3999,909 4000,912 4001,916 4002,919 4004,922 4005,925 4007,928 4009,930 4013,936 4018,941 4022,945 4027,948 4032,951 4037,953 4042,955 4047,956 4053,957 4058,957 4064,957 4069,956 4075,955 4080,954 4084,952 4089,950 4093,947 4097,944 4100,942 4103,939 4105,936 4108,933 4110,929 4112,925 4114,921 4115,916 4161,916 4159,926 4155,936 4152,944 4148,953 4143,960 4137,967 4134,970 4131,973 4128,976 4124,979 4117,983 4110,988 4102,991 4094,994 4086,996 4077,998 4068,999 4058,999 4048,999 4037,997 4027,995 4023,993 4018,992 4013,990 4008,987 4000,982 3991,976 3983,968 3979,964 3975,959 3971,954 3967,949 3964,944 3961,939 3959,933 3956,928 3954,922 3953,916 3950,903 3948,890 3948,876 3948,861 3950,848 3953,835 3957,822 3959,817 3962,811 3965,805 3969,800 3972,794 3976,789 3985,779 3989,776 3992,773 3996,770 4000,767 4004,764 4009,762 4013,760 4018,758 4022,756 4027,755 4037,753 4048,751 4059,751 4070,751 4081,753 4091,755 4096,756 4100,758 4105,760 4109,762 4113,765 4118,767 4122,770 4125,773 4129,776 4133,780 4137,784 4141,789 4144,794 4148,799 4151,804 4153,809 4156,815 4158,821 4162,833 4165,846 4166,859 4167,873 4167,892 Z M 4116,851 L 4116,846 4115,840 4113,834 4111,829 4109,824 4106,819 4102,814 4098,810 4094,806 4092,804 4090,802 4087,801 4085,799 4083,798 4080,797 4078,796 4075,795 4072,794 4070,794 4064,793 4058,793 4052,793 4049,794 4045,794 4042,795 4039,796 4037,797 4034,798 4031,799 4029,801 4026,802 4024,804 4021,806 4019,808 4017,811 4015,813 4011,818 4008,823 4005,828 4003,833 4001,838 3999,842 3999,847 3998,849 3998,851 4116,851 Z"/>
         </g>
        </g>
        <g class="com.sun.star.drawing.PolyPolygonShape">
         <g id="id14">
          <rect class="BoundingBox" stroke="none" fill="none" x="4527" y="665" width="203" height="330"/>
          <path fill="rgb(255,255,255)" stroke="none" d="M 4729,993 L 4528,993 4528,954 4657,799 4661,793 4665,788 4668,783 4670,777 4672,772 4673,766 4674,760 4674,754 4674,749 4674,744 4673,740 4672,737 4671,735 4670,733 4670,731 4669,729 4667,728 4666,726 4665,724 4663,723 4662,721 4660,720 4659,718 4657,717 4655,716 4653,715 4651,714 4649,713 4647,712 4642,711 4637,710 4632,709 4627,709 4622,709 4617,710 4612,711 4607,712 4603,714 4599,716 4595,719 4591,722 4590,723 4588,725 4587,727 4585,729 4584,731 4583,734 4582,736 4581,739 4579,745 4578,751 4578,758 4577,766 4528,766 4528,754 4529,743 4532,733 4533,728 4535,724 4536,719 4538,715 4541,711 4543,706 4546,703 4549,699 4552,695 4555,692 4559,689 4562,686 4566,683 4570,680 4574,678 4578,676 4582,674 4587,672 4596,669 4605,667 4616,666 4626,665 4640,666 4652,668 4658,669 4663,670 4669,672 4674,674 4679,677 4683,679 4688,682 4692,685 4696,689 4700,692 4703,696 4706,700 4710,707 4714,713 4717,720 4719,726 4721,733 4723,740 4723,747 4724,754 4723,763 4722,772 4720,781 4717,789 4713,798 4708,807 4702,815 4696,824 4588,948 4729,948 4729,993 Z"/>
         </g>
        </g>
        <g class="com.sun.star.drawing.PolyPolygonShape">
         <g id="id15">
          <rect class="BoundingBox" stroke="none" fill="none" x="4812" y="665" width="226" height="330"/>
          <path fill="rgb(255,255,255)" stroke="none" d="M 5037,711 L 4863,711 4863,806 5001,806 5001,853 4863,853 4863,993 4813,993 4813,665 5037,665 5037,711 Z"/>
         </g>
        </g>
        <g class="Group">
         <g class="com.sun.star.drawing.PolyPolygonShape">
          <g id="id16">
           <rect class="BoundingBox" stroke="none" fill="none" x="1100" y="659" width="248" height="342"/>
           <path fill="rgb(255,255,255)" stroke="none" d="M 1347,883 L 1346,896 1344,908 1341,919 1339,925 1336,930 1334,936 1331,941 1328,946 1325,950 1322,955 1318,959 1314,964 1310,968 1301,975 1292,982 1282,987 1272,992 1261,995 1250,998 1239,999 1227,1000 1215,999 1203,998 1197,996 1192,995 1186,993 1181,991 1175,989 1170,986 1160,980 1150,973 1141,964 1135,958 1129,951 1124,944 1120,937 1116,930 1113,923 1110,915 1108,907 1106,899 1105,890 1102,871 1101,851 1100,829 1101,808 1102,787 1105,769 1106,760 1108,752 1110,744 1113,737 1116,729 1120,722 1124,715 1129,708 1135,701 1141,695 1150,687 1160,680 1170,673 1175,671 1181,668 1186,666 1192,665 1203,662 1215,660 1227,660 1239,660 1250,662 1261,664 1272,667 1282,672 1292,677 1301,683 1310,691 1314,695 1318,699 1322,703 1325,707 1328,712 1331,717 1334,722 1336,727 1338,732 1340,738 1343,749 1345,761 1346,774 1295,774 1294,767 1293,760 1292,754 1290,748 1288,743 1286,740 1285,738 1284,736 1282,733 1280,731 1279,729 1273,724 1270,722 1268,719 1265,717 1262,715 1258,714 1255,712 1252,711 1249,710 1245,709 1242,708 1238,707 1234,707 1227,706 1223,706 1220,707 1216,707 1213,708 1210,709 1206,710 1203,711 1200,712 1197,714 1194,715 1188,719 1182,724 1176,729 1174,732 1171,736 1169,739 1166,743 1164,747 1163,751 1161,755 1159,760 1157,769 1155,777 1153,785 1153,788 1153,792 1152,799 1152,807 1152,829 1152,851 1152,860 1153,867 1153,870 1153,874 1155,881 1157,890 1159,899 1161,904 1163,908 1165,912 1167,916 1169,920 1171,924 1174,927 1176,930 1182,935 1188,940 1194,944 1197,946 1200,947 1203,949 1207,950 1210,951 1213,952 1217,952 1220,953 1223,953 1227,953 1234,953 1241,952 1247,950 1253,948 1259,946 1265,943 1270,939 1275,934 1277,932 1280,930 1282,927 1284,924 1285,921 1287,919 1289,915 1290,912 1291,909 1292,906 1294,898 1295,891 1295,883 1347,883 Z"/>
          </g>
         </g>
         <g class="com.sun.star.drawing.PolyPolygonShape">
          <g id="id17">
           <rect class="BoundingBox" stroke="none" fill="none" x="5057" y="665" width="271" height="330"/>
           <path fill="rgb(255,255,255)" stroke="none" d="M 5327,993 L 5277,993 5250,911 5134,911 5107,993 5058,993 5164,665 5220,665 5327,993 Z M 5237,864 L 5191,715 5147,864 5237,864 Z"/>
          </g>
         </g>
        </g>
       </g>
      </g>
      <g class="Group">
       <g class="com.sun.star.drawing.ClosedBezierShape">
        <g id="id18">
         <rect class="BoundingBox" stroke="none" fill="none" x="1136" y="1149" width="144" height="205"/>
         <path fill="rgb(222,230,239)" stroke="none" d="M 1279,1211 C 1279,1230 1273,1245 1262,1256 1250,1268 1232,1274 1209,1274 L 1161,1274 1161,1353 1136,1353 1136,1150 1209,1150 C 1233,1150 1251,1156 1263,1169 1273,1181 1279,1195 1279,1211 Z M 1252,1211 C 1252,1199 1248,1189 1240,1183 1232,1176 1222,1173 1208,1173 L 1161,1173 1161,1251 1209,1251 C 1223,1251 1233,1248 1241,1241 1249,1235 1252,1225 1252,1211 Z"/>
        </g>
       </g>
       <g class="com.sun.star.drawing.ClosedBezierShape">
        <g id="id19">
         <rect class="BoundingBox" stroke="none" fill="none" x="1330" y="1205" width="121" height="150"/>
         <path fill="rgb(222,230,239)" stroke="none" d="M 1450,1258 L 1425,1258 C 1425,1249 1422,1242 1417,1236 1411,1230 1404,1227 1394,1227 1387,1227 1380,1229 1374,1234 1368,1239 1364,1245 1361,1252 1357,1262 1355,1274 1355,1289 L 1355,1353 1330,1353 1330,1209 1351,1209 1353,1230 C 1358,1222 1364,1216 1372,1211 1381,1207 1390,1205 1399,1205 1417,1205 1430,1212 1440,1226 1446,1235 1450,1246 1450,1258 Z"/>
        </g>
       </g>
       <g class="com.sun.star.drawing.ClosedBezierShape">
        <g id="id20">
         <rect class="BoundingBox" stroke="none" fill="none" x="1486" y="1205" width="137" height="154"/>
         <path fill="rgb(222,230,239)" stroke="none" d="M 1622,1281 C 1622,1305 1615,1325 1600,1340 1588,1351 1572,1357 1554,1357 1536,1357 1521,1351 1509,1340 1494,1325 1486,1305 1486,1281 1486,1257 1494,1237 1509,1222 1521,1211 1536,1205 1554,1205 1572,1205 1588,1211 1600,1222 1615,1237 1622,1257 1622,1281 Z M 1581,1326 C 1592,1316 1597,1301 1597,1281 1597,1261 1592,1246 1581,1236 1573,1230 1564,1226 1554,1226 1544,1226 1535,1230 1527,1236 1516,1246 1511,1261 1511,1281 1511,1301 1516,1316 1527,1326 1535,1333 1544,1336 1554,1336 1564,1336 1573,1333 1581,1326 Z"/>
        </g>
       </g>
       <g class="com.sun.star.drawing.ClosedBezierShape">
        <g id="id21">
         <rect class="BoundingBox" stroke="none" fill="none" x="1659" y="1163" width="133" height="194"/>
         <path fill="rgb(222,230,239)" stroke="none" d="M 1791,1346 C 1779,1353 1765,1356 1751,1356 1736,1356 1724,1352 1716,1343 1708,1334 1704,1323 1704,1310 L 1704,1229 1659,1229 1659,1208 1704,1208 1704,1171 1728,1163 1728,1208 1789,1208 1789,1229 1728,1229 1728,1308 C 1728,1316 1731,1322 1735,1327 1740,1332 1746,1334 1754,1334 1764,1334 1777,1331 1791,1324 L 1791,1346 Z"/>
        </g>
       </g>
       <g class="com.sun.star.drawing.ClosedBezierShape">
        <g id="id22">
         <rect class="BoundingBox" stroke="none" fill="none" x="1842" y="1205" width="134" height="153"/>
         <path fill="rgb(222,230,239)" stroke="none" d="M 1975,1289 L 1867,1289 C 1867,1304 1872,1316 1881,1325 1889,1332 1898,1336 1909,1336 1920,1336 1929,1333 1936,1327 1942,1323 1946,1317 1948,1310 L 1971,1310 C 1968,1325 1961,1336 1949,1345 1938,1353 1925,1357 1909,1357 1892,1357 1876,1351 1863,1338 1849,1324 1842,1305 1842,1282 1842,1258 1849,1238 1863,1224 1876,1211 1891,1205 1909,1205 1928,1205 1943,1211 1954,1222 1968,1237 1975,1256 1975,1280 L 1975,1289 Z M 1949,1269 C 1949,1256 1945,1246 1937,1238 1930,1230 1920,1226 1909,1226 1897,1226 1887,1231 1879,1240 1872,1249 1868,1259 1868,1269 L 1949,1269 Z"/>
        </g>
       </g>
       <g class="com.sun.star.drawing.ClosedBezierShape">
        <g id="id23">
         <rect class="BoundingBox" stroke="none" fill="none" x="2022" y="1205" width="129" height="153"/>
         <path fill="rgb(222,230,239)" stroke="none" d="M 2044,1223 C 2057,1211 2072,1205 2090,1205 2107,1205 2121,1210 2132,1221 2143,1231 2149,1244 2150,1258 L 2126,1258 C 2125,1249 2121,1242 2114,1235 2108,1229 2099,1226 2090,1226 2079,1226 2070,1230 2063,1236 2052,1246 2047,1261 2047,1281 2047,1301 2052,1316 2063,1325 2070,1332 2079,1336 2090,1336 2099,1336 2108,1333 2114,1327 2121,1320 2125,1313 2126,1305 L 2150,1305 C 2149,1318 2143,1331 2132,1342 2121,1352 2107,1357 2090,1357 2072,1357 2057,1351 2044,1339 2029,1325 2022,1305 2022,1281 2022,1257 2029,1237 2044,1223 Z"/>
        </g>
       </g>
       <g class="com.sun.star.drawing.ClosedBezierShape">
        <g id="id24">
         <rect class="BoundingBox" stroke="none" fill="none" x="2193" y="1163" width="133" height="194"/>
         <path fill="rgb(222,230,239)" stroke="none" d="M 2325,1346 C 2313,1353 2299,1356 2285,1356 2270,1356 2258,1352 2250,1343 2242,1334 2238,1323 2238,1310 L 2238,1229 2193,1229 2193,1208 2238,1208 2238,1171 2262,1163 2262,1208 2323,1208 2323,1229 2262,1229 2262,1308 C 2262,1316 2265,1322 2269,1327 2274,1332 2280,1334 2288,1334 2298,1334 2311,1331 2325,1324 L 2325,1346 Z"/>
        </g>
       </g>
       <g class="com.sun.star.drawing.ClosedBezierShape">
        <g id="id25">
         <rect class="BoundingBox" stroke="none" fill="none" x="2386" y="1147" width="131" height="207"/>
         <path fill="rgb(222,230,239)" stroke="none" d="M 2467,1181 C 2455,1181 2444,1181 2432,1181 2432,1170 2432,1158 2432,1147 2444,1147 2455,1147 2467,1147 2467,1158 2467,1170 2467,1181 Z M 2516,1353 C 2472,1353 2429,1353 2386,1353 2386,1347 2386,1340 2386,1333 2403,1333 2421,1333 2438,1333 2438,1298 2438,1264 2438,1229 2423,1229 2407,1229 2392,1229 2392,1222 2392,1216 2392,1209 2415,1209 2439,1209 2463,1209 2463,1250 2463,1291 2463,1333 2480,1333 2498,1333 2516,1333 2516,1340 2516,1347 2516,1353 Z"/>
        </g>
       </g>
       <g class="com.sun.star.drawing.ClosedBezierShape">
        <g id="id26">
         <rect class="BoundingBox" stroke="none" fill="none" x="2562" y="1205" width="121" height="150"/>
         <path fill="rgb(222,230,239)" stroke="none" d="M 2682,1353 L 2657,1353 2657,1262 C 2657,1239 2647,1227 2625,1227 2619,1227 2612,1229 2606,1233 2601,1238 2596,1243 2593,1250 2589,1259 2587,1272 2587,1287 L 2587,1353 2562,1353 2562,1209 2583,1209 2585,1230 C 2590,1222 2596,1216 2604,1212 2613,1207 2622,1205 2631,1205 2647,1205 2660,1210 2669,1219 2678,1228 2682,1241 2682,1258 L 2682,1353 Z"/>
        </g>
       </g>
       <g class="com.sun.star.drawing.ClosedBezierShape">
        <g id="id27">
         <rect class="BoundingBox" stroke="none" fill="none" x="2734" y="1193" width="139" height="229"/>
         <path fill="rgb(222,230,239)" stroke="none" d="M 2872,1375 C 2872,1386 2868,1395 2860,1404 2848,1415 2828,1421 2801,1421 2775,1421 2756,1415 2745,1404 2738,1397 2734,1388 2734,1379 2734,1371 2736,1365 2740,1359 2744,1353 2748,1349 2755,1346 2750,1344 2746,1341 2743,1337 2740,1332 2738,1327 2738,1322 2738,1309 2745,1300 2758,1294 2746,1284 2741,1272 2741,1256 2741,1242 2746,1231 2755,1221 2765,1210 2780,1205 2798,1205 2812,1205 2823,1208 2832,1213 2835,1207 2838,1202 2844,1198 2849,1195 2855,1193 2862,1193 2864,1193 2866,1193 2869,1194 L 2869,1213 C 2868,1213 2867,1213 2864,1213 2859,1213 2855,1214 2852,1217 2849,1219 2847,1222 2846,1226 2852,1235 2856,1245 2856,1256 2856,1269 2851,1281 2842,1291 2832,1302 2817,1308 2798,1308 2791,1308 2782,1306 2773,1303 2770,1304 2767,1306 2765,1308 2762,1311 2761,1314 2761,1317 2760,1322 2762,1326 2766,1328 2771,1330 2776,1331 2782,1331 L 2814,1331 C 2835,1331 2851,1336 2861,1346 2868,1354 2872,1363 2872,1375 Z M 2832,1256 C 2832,1247 2829,1239 2823,1233 2816,1227 2808,1224 2798,1224 2788,1224 2780,1227 2774,1233 2767,1239 2764,1247 2764,1256 2764,1265 2768,1273 2774,1279 2780,1285 2788,1289 2798,1289 2808,1289 2816,1285 2822,1279 2829,1273 2832,1265 2832,1256 Z M 2848,1375 C 2848,1371 2848,1368 2847,1365 2846,1362 2844,1360 2841,1358 2839,1357 2836,1355 2834,1354 2832,1353 2829,1353 2824,1352 2820,1352 2817,1352 2815,1352 2813,1352 2810,1352 2806,1352 2804,1352 2803,1352 2802,1352 L 2774,1352 C 2769,1353 2765,1356 2761,1360 2758,1365 2756,1369 2756,1375 2756,1381 2758,1386 2762,1390 2769,1396 2782,1400 2802,1400 2822,1400 2835,1396 2842,1389 2846,1385 2848,1380 2848,1375 Z"/>
        </g>
       </g>
       <g class="com.sun.star.drawing.ClosedBezierShape">
        <g id="id28">
         <rect class="BoundingBox" stroke="none" fill="none" x="3076" y="1149" width="158" height="205"/>
         <path fill="rgb(222,230,239)" stroke="none" d="M 3232,1150 C 3227,1218 3223,1285 3218,1353 3208,1353 3198,1353 3188,1353 3176,1316 3165,1278 3154,1241 3143,1278 3132,1316 3121,1353 3111,1353 3100,1353 3090,1353 3085,1285 3081,1218 3076,1150 3084,1150 3092,1150 3100,1150 3103,1205 3107,1260 3110,1315 3121,1280 3132,1244 3142,1208 3150,1208 3158,1208 3166,1208 3177,1244 3187,1279 3198,1315 3201,1260 3205,1205 3208,1150 3216,1150 3224,1150 3232,1150 Z"/>
        </g>
       </g>
       <g class="com.sun.star.drawing.ClosedBezierShape">
        <g id="id29">
         <rect class="BoundingBox" stroke="none" fill="none" x="3264" y="1205" width="138" height="154"/>
         <path fill="rgb(222,230,239)" stroke="none" d="M 3400,1281 C 3400,1305 3393,1325 3378,1340 3366,1351 3350,1357 3332,1357 3314,1357 3299,1351 3287,1340 3272,1325 3264,1305 3264,1281 3264,1257 3272,1237 3287,1222 3299,1211 3314,1205 3332,1205 3350,1205 3366,1211 3378,1222 3393,1237 3400,1257 3400,1281 Z M 3359,1326 C 3370,1316 3375,1301 3375,1281 3375,1261 3370,1246 3359,1236 3351,1230 3342,1226 3332,1226 3322,1226 3313,1230 3305,1236 3294,1246 3289,1261 3289,1281 3289,1301 3294,1316 3305,1326 3313,1333 3322,1336 3332,1336 3342,1336 3351,1333 3359,1326 Z"/>
        </g>
       </g>
       <g class="com.sun.star.drawing.ClosedBezierShape">
        <g id="id30">
         <rect class="BoundingBox" stroke="none" fill="none" x="3463" y="1205" width="121" height="150"/>
         <path fill="rgb(222,230,239)" stroke="none" d="M 3583,1258 L 3558,1258 C 3558,1249 3555,1242 3550,1236 3544,1230 3537,1227 3527,1227 3520,1227 3513,1229 3507,1234 3501,1239 3497,1245 3494,1252 3490,1262 3488,1274 3488,1289 L 3488,1353 3463,1353 3463,1209 3484,1209 3486,1230 C 3491,1222 3497,1216 3505,1211 3514,1207 3523,1205 3532,1205 3550,1205 3563,1212 3573,1226 3579,1235 3583,1246 3583,1258 Z"/>
        </g>
       </g>
       <g class="com.sun.star.drawing.ClosedBezierShape">
        <g id="id31">
         <rect class="BoundingBox" stroke="none" fill="none" x="3616" y="1147" width="131" height="212"/>
         <path fill="rgb(222,230,239)" stroke="none" d="M 3746,1353 L 3725,1353 3723,1335 C 3719,1342 3713,1347 3705,1351 3696,1355 3687,1357 3679,1357 3662,1357 3648,1352 3637,1340 3623,1326 3616,1306 3616,1281 3616,1256 3623,1236 3638,1221 3650,1210 3664,1205 3679,1205 3688,1205 3697,1207 3705,1211 3712,1215 3718,1220 3722,1226 L 3722,1147 3746,1147 3746,1353 Z M 3707,1327 C 3718,1317 3724,1302 3724,1281 3724,1260 3718,1245 3707,1235 3700,1229 3692,1226 3683,1226 3673,1226 3664,1230 3656,1237 3646,1248 3641,1262 3641,1281 3641,1301 3646,1316 3656,1326 3663,1333 3672,1336 3683,1336 3692,1336 3700,1333 3707,1327 Z"/>
        </g>
       </g>
       <g class="com.sun.star.drawing.ClosedBezierShape">
        <g id="id32">
         <rect class="BoundingBox" stroke="none" fill="none" x="3802" y="1149" width="145" height="205"/>
         <path fill="rgb(222,230,239)" stroke="none" d="M 3946,1211 C 3946,1230 3940,1245 3929,1256 3917,1268 3899,1274 3876,1274 L 3828,1274 3828,1353 3803,1353 3803,1150 3876,1150 C 3900,1150 3918,1156 3930,1169 3940,1181 3946,1195 3946,1211 Z M 3919,1211 C 3919,1199 3915,1189 3907,1183 3899,1176 3889,1173 3875,1173 L 3828,1173 3828,1251 3876,1251 C 3890,1251 3900,1248 3908,1241 3916,1235 3919,1225 3919,1211 Z"/>
        </g>
       </g>
       <g class="com.sun.star.drawing.ClosedBezierShape">
        <g id="id33">
         <rect class="BoundingBox" stroke="none" fill="none" x="3996" y="1205" width="122" height="150"/>
         <path fill="rgb(222,230,239)" stroke="none" d="M 4117,1258 L 4092,1258 C 4092,1249 4089,1242 4084,1236 4078,1230 4071,1227 4061,1227 4054,1227 4047,1229 4041,1234 4035,1239 4031,1245 4028,1252 4024,1262 4022,1274 4022,1289 L 4022,1353 3997,1353 3997,1209 4018,1209 4020,1230 C 4025,1222 4031,1216 4039,1211 4048,1207 4057,1205 4066,1205 4084,1205 4097,1212 4107,1226 4113,1235 4117,1246 4117,1258 Z"/>
        </g>
       </g>
       <g class="com.sun.star.drawing.ClosedBezierShape">
        <g id="id34">
         <rect class="BoundingBox" stroke="none" fill="none" x="4153" y="1205" width="135" height="153"/>
         <path fill="rgb(222,230,239)" stroke="none" d="M 4287,1289 L 4179,1289 C 4179,1304 4184,1316 4193,1325 4201,1332 4210,1336 4221,1336 4232,1336 4241,1333 4248,1327 4254,1323 4258,1317 4260,1310 L 4283,1310 C 4280,1325 4273,1336 4261,1345 4250,1353 4237,1357 4221,1357 4204,1357 4188,1351 4175,1338 4161,1324 4154,1305 4154,1282 4154,1258 4161,1238 4175,1224 4188,1211 4203,1205 4221,1205 4240,1205 4255,1211 4266,1222 4280,1237 4287,1256 4287,1280 L 4287,1289 Z M 4261,1269 C 4261,1256 4257,1246 4249,1238 4242,1230 4232,1226 4221,1226 4209,1226 4199,1231 4191,1240 4184,1249 4180,1259 4180,1269 L 4261,1269 Z"/>
        </g>
       </g>
       <g class="com.sun.star.drawing.ClosedBezierShape">
        <g id="id35">
         <rect class="BoundingBox" stroke="none" fill="none" x="4335" y="1205" width="126" height="154"/>
         <path fill="rgb(222,230,239)" stroke="none" d="M 4449,1284 C 4456,1291 4460,1300 4460,1311 4460,1323 4456,1332 4448,1340 4437,1352 4421,1357 4399,1357 4377,1357 4361,1352 4349,1340 4340,1331 4335,1320 4335,1307 L 4359,1307 C 4360,1316 4364,1323 4372,1329 4378,1334 4388,1336 4400,1336 4412,1336 4422,1334 4428,1328 4433,1324 4435,1319 4435,1313 4435,1302 4428,1295 4414,1293 L 4377,1288 C 4366,1286 4357,1281 4350,1274 4345,1268 4342,1259 4342,1249 4342,1239 4346,1229 4354,1222 4364,1211 4379,1205 4398,1205 4419,1205 4435,1211 4445,1224 4451,1232 4455,1241 4455,1252 L 4431,1252 C 4431,1245 4428,1239 4423,1234 4416,1228 4408,1226 4398,1226 4387,1226 4379,1228 4373,1233 4368,1237 4365,1242 4365,1248 4365,1258 4371,1264 4384,1266 L 4423,1272 C 4433,1273 4442,1278 4449,1284 Z"/>
        </g>
       </g>
       <g class="com.sun.star.drawing.ClosedBezierShape">
        <g id="id36">
         <rect class="BoundingBox" stroke="none" fill="none" x="4513" y="1205" width="126" height="154"/>
         <path fill="rgb(222,230,239)" stroke="none" d="M 4627,1284 C 4634,1291 4638,1300 4638,1311 4638,1323 4634,1332 4626,1340 4615,1352 4599,1357 4577,1357 4555,1357 4539,1352 4527,1340 4518,1331 4513,1320 4513,1307 L 4537,1307 C 4538,1316 4542,1323 4550,1329 4556,1334 4566,1336 4578,1336 4590,1336 4600,1334 4606,1328 4611,1324 4613,1319 4613,1313 4613,1302 4606,1295 4592,1293 L 4555,1288 C 4544,1286 4535,1281 4528,1274 4523,1268 4520,1259 4520,1249 4520,1239 4524,1229 4532,1222 4542,1211 4557,1205 4576,1205 4597,1205 4613,1211 4623,1224 4629,1232 4633,1241 4633,1252 L 4609,1252 C 4609,1245 4606,1239 4601,1234 4594,1228 4586,1226 4576,1226 4565,1226 4557,1228 4551,1233 4546,1237 4543,1242 4543,1248 4543,1258 4549,1264 4562,1266 L 4601,1272 C 4611,1273 4620,1278 4627,1284 Z"/>
        </g>
       </g>
      </g>
      <g class="Group">
       <g class="com.sun.star.drawing.ClosedBezierShape">
        <g id="id37">
         <rect class="BoundingBox" stroke="none" fill="none" x="4658" y="1841" width="94" height="147"/>
         <path fill="rgb(114,159,207)" stroke="none" d="M 4750,1894 C 4750,1913 4744,1927 4734,1937 4726,1944 4717,1948 4705,1948 4699,1948 4693,1947 4688,1944 4682,1941 4678,1938 4675,1933 L 4675,1987 4658,1987 4658,1843 4673,1843 4674,1857 C 4677,1852 4681,1848 4687,1845 4693,1842 4699,1841 4705,1841 4717,1841 4727,1845 4735,1853 4745,1863 4750,1877 4750,1894 Z M 4732,1894 C 4732,1881 4729,1870 4722,1863 4717,1858 4710,1856 4703,1856 4696,1856 4690,1858 4686,1862 4678,1869 4674,1880 4674,1894 4674,1909 4678,1920 4686,1926 4690,1931 4696,1933 4703,1933 4710,1933 4717,1930 4722,1925 4729,1918 4732,1908 4732,1894 Z"/>
        </g>
       </g>
       <g class="com.sun.star.drawing.ClosedBezierShape">
        <g id="id38">
         <rect class="BoundingBox" stroke="none" fill="none" x="4777" y="1840" width="96" height="109"/>
         <path fill="rgb(114,159,207)" stroke="none" d="M 4872,1944 C 4869,1946 4866,1947 4861,1947 4857,1947 4853,1945 4850,1942 4848,1939 4846,1936 4846,1931 4843,1936 4838,1940 4832,1943 4826,1946 4819,1948 4812,1948 4801,1948 4792,1945 4786,1939 4780,1933 4777,1926 4777,1918 4777,1910 4780,1902 4786,1896 4792,1889 4801,1885 4813,1885 L 4845,1883 4845,1876 C 4845,1869 4843,1864 4840,1861 4836,1857 4830,1855 4823,1855 4815,1855 4808,1857 4804,1861 4801,1865 4799,1868 4799,1873 L 4782,1873 C 4782,1865 4785,1858 4791,1852 4799,1845 4809,1841 4823,1841 4832,1841 4840,1843 4846,1847 4852,1850 4856,1855 4859,1861 4861,1866 4862,1871 4862,1876 L 4862,1925 C 4862,1930 4864,1932 4868,1932 L 4872,1932 4872,1944 Z M 4845,1902 L 4845,1896 4817,1898 C 4811,1898 4806,1900 4801,1903 4797,1906 4794,1911 4794,1917 4794,1922 4796,1926 4800,1929 4803,1932 4808,1933 4815,1933 4824,1933 4831,1931 4836,1925 4842,1919 4845,1911 4845,1902 Z"/>
        </g>
       </g>
       <g class="com.sun.star.drawing.ClosedBezierShape">
        <g id="id39">
         <rect class="BoundingBox" stroke="none" fill="none" x="4901" y="1841" width="89" height="108"/>
         <path fill="rgb(114,159,207)" stroke="none" d="M 4981,1897 C 4986,1902 4989,1908 4989,1916 4989,1924 4986,1930 4981,1936 4973,1944 4961,1948 4946,1948 4931,1948 4919,1944 4911,1936 4904,1930 4901,1922 4901,1913 L 4918,1913 C 4918,1919 4921,1924 4927,1928 4931,1932 4938,1933 4947,1933 4955,1933 4962,1931 4967,1927 4970,1925 4972,1921 4972,1917 4972,1909 4967,1904 4956,1903 L 4931,1899 C 4923,1898 4917,1895 4912,1890 4908,1885 4906,1879 4906,1872 4906,1865 4909,1858 4914,1853 4922,1845 4932,1841 4945,1841 4960,1841 4971,1846 4979,1855 4983,1860 4985,1867 4986,1874 L 4969,1874 C 4968,1869 4966,1865 4963,1862 4958,1857 4952,1855 4945,1855 4938,1855 4932,1857 4928,1860 4924,1864 4922,1867 4922,1871 4922,1878 4927,1882 4936,1884 L 4963,1888 C 4970,1889 4976,1892 4981,1897 Z"/>
        </g>
       </g>
       <g class="com.sun.star.drawing.ClosedBezierShape">
        <g id="id40">
         <rect class="BoundingBox" stroke="none" fill="none" x="5023" y="1841" width="89" height="108"/>
         <path fill="rgb(114,159,207)" stroke="none" d="M 5103,1897 C 5108,1902 5111,1908 5111,1916 5111,1924 5108,1930 5103,1936 5095,1944 5083,1948 5068,1948 5053,1948 5041,1944 5033,1936 5026,1930 5023,1922 5023,1913 L 5040,1913 C 5040,1919 5043,1924 5049,1928 5053,1932 5060,1933 5069,1933 5077,1933 5084,1931 5089,1927 5092,1925 5094,1921 5094,1917 5094,1909 5089,1904 5078,1903 L 5053,1899 C 5045,1898 5039,1895 5034,1890 5030,1885 5028,1879 5028,1872 5028,1865 5031,1858 5036,1853 5044,1845 5054,1841 5067,1841 5082,1841 5093,1846 5101,1855 5105,1860 5107,1867 5108,1874 L 5091,1874 C 5090,1869 5088,1865 5085,1862 5080,1857 5074,1855 5067,1855 5060,1855 5054,1857 5050,1860 5046,1864 5044,1867 5044,1871 5044,1878 5049,1882 5058,1884 L 5085,1888 C 5092,1889 5098,1892 5103,1897 Z"/>
        </g>
       </g>
       <g class="com.sun.star.drawing.ClosedBezierShape">
        <g id="id41">
         <rect class="BoundingBox" stroke="none" fill="none" x="5137" y="1844" width="109" height="103"/>
         <path fill="rgb(114,159,207)" stroke="none" d="M 5245,1844 C 5240,1878 5235,1912 5230,1946 5224,1946 5217,1946 5210,1946 5204,1926 5197,1907 5191,1888 5184,1907 5178,1926 5171,1946 5164,1946 5158,1946 5151,1946 5146,1912 5142,1878 5137,1844 5142,1844 5148,1844 5153,1844 5157,1871 5160,1898 5164,1925 5170,1907 5176,1889 5183,1870 5188,1870 5193,1870 5199,1870 5205,1888 5211,1907 5218,1925 5221,1898 5225,1871 5228,1844 5234,1844 5239,1844 5245,1844 Z"/>
        </g>
       </g>
       <g class="com.sun.star.drawing.ClosedBezierShape">
        <g id="id42">
         <rect class="BoundingBox" stroke="none" fill="none" x="5265" y="1840" width="97" height="109"/>
         <path fill="rgb(114,159,207)" stroke="none" d="M 5361,1894 C 5361,1911 5355,1925 5345,1936 5336,1944 5326,1948 5313,1948 5300,1948 5289,1944 5281,1936 5270,1925 5265,1911 5265,1894 5265,1877 5270,1864 5281,1853 5289,1845 5300,1841 5313,1841 5326,1841 5336,1845 5345,1853 5355,1864 5361,1877 5361,1894 Z M 5332,1926 C 5339,1919 5343,1908 5343,1894 5343,1881 5339,1870 5332,1863 5326,1858 5320,1856 5313,1856 5306,1856 5299,1858 5294,1863 5286,1870 5282,1880 5282,1894 5282,1908 5286,1919 5294,1926 5299,1931 5306,1933 5313,1933 5320,1933 5326,1931 5332,1926 Z"/>
        </g>
       </g>
       <g class="com.sun.star.drawing.ClosedBezierShape">
        <g id="id43">
         <rect class="BoundingBox" stroke="none" fill="none" x="5403" y="1841" width="86" height="105"/>
         <path fill="rgb(114,159,207)" stroke="none" d="M 5488,1878 L 5471,1878 C 5471,1872 5469,1867 5465,1863 5461,1859 5456,1856 5449,1856 5444,1856 5439,1858 5435,1861 5431,1865 5428,1869 5426,1874 5423,1881 5421,1890 5421,1900 L 5421,1945 5404,1945 5404,1844 5419,1844 5420,1859 C 5424,1853 5428,1849 5434,1846 5440,1843 5446,1841 5453,1841 5465,1841 5475,1846 5482,1856 5486,1862 5488,1870 5488,1878 Z"/>
        </g>
       </g>
       <g class="com.sun.star.drawing.ClosedBezierShape">
        <g id="id44">
         <rect class="BoundingBox" stroke="none" fill="none" x="5508" y="1800" width="93" height="149"/>
         <path fill="rgb(114,159,207)" stroke="none" d="M 5600,1945 L 5585,1945 5583,1932 C 5581,1937 5576,1941 5570,1944 5564,1946 5558,1948 5552,1948 5540,1948 5530,1944 5523,1936 5513,1926 5508,1912 5508,1894 5508,1876 5513,1862 5524,1852 5532,1845 5541,1841 5553,1841 5559,1841 5565,1842 5570,1845 5576,1848 5580,1851 5583,1855 L 5583,1800 5600,1800 5600,1945 Z M 5572,1926 C 5580,1920 5584,1909 5584,1894 5584,1880 5580,1869 5572,1862 5567,1858 5562,1856 5555,1856 5548,1856 5542,1858 5536,1864 5529,1871 5525,1881 5525,1894 5525,1908 5529,1919 5536,1926 5541,1930 5547,1933 5555,1933 5562,1933 5567,1931 5572,1926 Z"/>
        </g>
       </g>
      </g>
      <g class="Group">
       <g class="com.sun.star.drawing.ClosedBezierShape">
        <g id="id45">
         <rect class="BoundingBox" stroke="none" fill="none" x="200" y="601" width="800" height="799"/>
         <path fill="rgb(255,255,255)" stroke="none" d="M 593,1399 C 483,1373 383,1311 312,1223 240,1134 200,1021 200,907 200,821 200,736 200,651 200,624 223,601 250,601 483,601 716,601 949,601 977,601 999,623 999,651 999,735 999,819 999,903 999,1017 961,1130 889,1220 819,1309 720,1372 610,1399 604,1399 599,1399 593,1399 Z M 250,635 C 241,635 234,642 234,651 234,736 233,821 233,907 233,1013 271,1118 338,1202 405,1285 498,1343 601,1366 704,1342 797,1283 863,1200 930,1115 966,1010 965,903 965,819 966,735 966,651 966,642 958,634 949,634 716,634 483,635 250,635 Z"/>
        </g>
       </g>
       <g class="com.sun.star.drawing.ClosedBezierShape">
        <g id="id46">
         <rect class="BoundingBox" stroke="none" fill="none" x="433" y="701" width="335" height="434"/>
         <path fill="rgb(255,255,255)" stroke="none" d="M 484,1134 C 456,1134 434,1112 434,1085 434,1019 433,954 433,889 433,862 455,839 483,839 483,832 483,825 483,818 482,754 534,701 599,701 663,701 716,753 716,817 716,824 716,831 716,838 744,838 766,861 766,888 766,953 766,1018 767,1084 767,1097 762,1109 753,1118 743,1128 731,1133 717,1133 639,1134 562,1134 484,1134 Z M 483,873 C 474,873 466,880 466,889 466,954 467,1019 467,1085 467,1094 475,1101 484,1101 562,1101 639,1101 717,1101 722,1100 726,1099 729,1096 732,1092 734,1088 734,1084 733,1018 733,953 733,888 733,879 725,872 716,872 638,872 561,872 483,873 Z M 599,734 C 553,735 516,772 516,818 516,825 516,832 516,839 571,838 627,838 683,838 683,831 683,824 683,817 683,795 674,774 658,759 642,743 621,734 599,734 Z"/>
        </g>
       </g>
       <g class="com.sun.star.drawing.ClosedBezierShape">
        <g id="id47">
         <rect class="BoundingBox" stroke="none" fill="none" x="542" y="928" width="117" height="118"/>
         <path fill="rgb(255,255,255)" stroke="none" d="M 600,1045 C 568,1045 542,1018 542,986 542,953 568,928 600,928 632,928 658,953 658,986 658,1018 632,1045 600,1045 Z M 600,961 C 586,961 575,972 575,986 575,999 586,1011 600,1011 614,1011 625,999 625,986 625,972 614,961 600,961 Z"/>
        </g>
       </g>
      </g>
      <g class="Group">
       <g class="com.sun.star.drawing.ClosedBezierShape">
        <g id="id48">
         <rect class="BoundingBox" stroke="none" fill="none" x="5917" y="620" width="332" height="378"/>
         <path fill="rgb(255,255,255)" stroke="none" d="M 6067,997 C 6045,997 6023,988 6008,972 6008,971 6008,971 6007,971 5980,935 5953,900 5926,864 5915,851 5914,831 5926,817 5931,810 5940,806 5949,805 5950,805 5950,805 5951,805 5959,805 5968,808 5974,814 5982,820 5990,827 5997,834 5990,786 5983,739 5976,692 5976,691 5976,691 5976,690 5973,671 5985,653 6004,650 6006,650 6008,650 6010,650 6027,650 6041,662 6044,678 6045,684 6046,689 6047,695 6047,681 6047,668 6047,654 6047,635 6063,620 6082,620 6101,620 6116,635 6116,654 6116,669 6116,685 6116,700 6117,694 6119,689 6120,683 6120,682 6120,681 6121,680 6123,671 6129,664 6137,659 6142,656 6148,655 6154,655 6157,655 6160,655 6163,656 6172,659 6180,664 6184,672 6189,680 6190,690 6187,699 6182,725 6178,751 6173,777 6177,771 6180,765 6184,760 6190,749 6201,743 6213,743 6220,743 6226,745 6231,748 6248,758 6253,780 6243,796 6232,816 6221,836 6210,857 6204,868 6202,880 6202,891 6202,939 6188,997 6121,997 6103,997 6085,997 6067,997 Z M 6025,957 C 6036,968 6051,974 6067,974 6085,974 6103,974 6121,974 6161,974 6179,948 6179,891 6179,876 6183,861 6190,847 6201,826 6212,805 6223,785 6227,778 6225,771 6220,768 6218,767 6216,766 6213,766 6209,766 6205,768 6203,772 6189,794 6175,816 6161,838 6159,841 6155,843 6152,843 6150,843 6149,843 6147,842 6142,841 6139,835 6140,830 6148,784 6157,739 6165,694 6166,690 6166,686 6165,683 6163,681 6160,679 6157,678 6156,678 6155,677 6154,677 6152,677 6150,678 6148,679 6146,680 6144,683 6143,686 6143,687 6142,687 6142,687 6133,726 6125,765 6116,804 6115,809 6111,812 6105,812 L 6104,812 C 6098,812 6094,807 6094,801 6094,752 6094,703 6094,654 6094,648 6089,642 6082,642 6075,642 6070,648 6070,654 6070,703 6070,752 6070,801 6070,807 6066,812 6060,812 L 6059,812 C 6054,812 6049,809 6048,804 6040,763 6031,723 6022,683 6021,676 6016,672 6010,672 6009,672 6009,672 6008,672 6005,673 6002,674 6000,677 5998,679 5998,683 5998,686 L 5998,687 C 5999,687 5999,688 5999,688 6008,745 6016,803 6024,861 6024,866 6022,871 6018,873 6016,874 6014,874 6013,874 6010,874 6007,873 6005,871 5990,857 5975,844 5959,831 5957,829 5954,828 5951,828 L 5950,828 C 5947,828 5944,830 5942,832 5938,837 5938,844 5943,849 5944,849 5944,849 5944,850 5971,886 5998,921 6025,957 Z"/>
        </g>
       </g>
       <g class="com.sun.star.drawing.ClosedBezierShape">
        <g id="id49">
         <rect class="BoundingBox" stroke="none" fill="none" x="5811" y="545" width="544" height="544"/>
         <path fill="rgb(255,255,255)" stroke="none" d="M 5997,1088 C 5981,1087 5964,1080 5952,1069 5911,1029 5871,989 5831,948 5819,935 5812,919 5811,902 5811,846 5811,790 5811,734 5812,717 5819,700 5830,688 5870,647 5910,606 5951,565 5964,553 5980,546 5997,545 6053,545 6110,545 6166,545 6183,546 6199,553 6212,564 6253,605 6293,646 6334,687 6346,700 6353,717 6354,733 6354,789 6354,846 6354,902 6353,919 6346,935 6335,948 6294,989 6253,1029 6212,1069 6199,1080 6183,1087 6166,1088 6110,1088 6054,1088 5998,1088 5997,1088 5997,1088 5997,1088 Z M 5998,568 C 5987,569 5976,573 5967,581 5927,622 5887,662 5847,703 5839,712 5835,723 5834,735 5834,791 5834,846 5834,902 5835,913 5839,924 5847,933 5887,973 5927,1013 5967,1052 5976,1060 5987,1064 5998,1065 6054,1065 6110,1065 6166,1065 6177,1064 6188,1060 6197,1052 6238,1012 6278,972 6318,932 6326,924 6330,913 6331,901 6331,845 6331,790 6331,734 6330,723 6326,712 6318,703 6278,662 6237,622 6196,581 6188,573 6177,569 6165,568 6109,568 6054,568 5998,568 Z"/>
        </g>
       </g>
      </g>
      <g class="Group">
       <g class="com.sun.star.drawing.ClosedBezierShape">
        <g id="id50">
         <rect class="BoundingBox" stroke="none" fill="none" x="5900" y="1602" width="85" height="105"/>
         <path fill="rgb(114,159,207)" stroke="none" d="M 5983,1704 L 5968,1704 5967,1688 C 5965,1694 5960,1698 5954,1701 5948,1705 5942,1706 5936,1706 5925,1706 5916,1703 5910,1696 5903,1689 5900,1680 5900,1669 L 5900,1602 5917,1602 5917,1667 C 5917,1683 5925,1691 5940,1691 5947,1691 5953,1688 5958,1682 5964,1677 5966,1670 5966,1661 L 5966,1602 5983,1602 5983,1704 Z"/>
        </g>
       </g>
       <g class="com.sun.star.drawing.ClosedBezierShape">
        <g id="id51">
         <rect class="BoundingBox" stroke="none" fill="none" x="6021" y="1600" width="90" height="109"/>
         <path fill="rgb(114,159,207)" stroke="none" d="M 6101,1656 C 6106,1661 6109,1667 6109,1675 6109,1683 6106,1689 6101,1695 6093,1703 6081,1707 6066,1707 6051,1707 6039,1703 6031,1695 6024,1689 6021,1681 6021,1672 L 6038,1672 C 6038,1678 6041,1683 6047,1687 6051,1691 6058,1692 6067,1692 6075,1692 6082,1690 6087,1686 6090,1684 6092,1680 6092,1676 6092,1668 6087,1663 6076,1662 L 6051,1658 C 6043,1657 6037,1654 6032,1649 6028,1644 6026,1638 6026,1631 6026,1624 6029,1617 6034,1612 6042,1604 6052,1600 6065,1600 6080,1600 6091,1605 6099,1614 6103,1619 6105,1626 6106,1633 L 6089,1633 C 6088,1628 6086,1624 6083,1621 6078,1616 6072,1614 6065,1614 6058,1614 6052,1616 6048,1619 6044,1623 6042,1626 6042,1630 6042,1637 6047,1641 6056,1643 L 6083,1647 C 6090,1648 6096,1651 6101,1656 Z"/>
        </g>
       </g>
       <g class="com.sun.star.drawing.ClosedBezierShape">
        <g id="id52">
         <rect class="BoundingBox" stroke="none" fill="none" x="6142" y="1600" width="95" height="108"/>
         <path fill="rgb(114,159,207)" stroke="none" d="M 6235,1659 L 6160,1659 C 6160,1669 6163,1678 6170,1684 6175,1690 6182,1692 6189,1692 6197,1692 6203,1690 6208,1686 6212,1683 6215,1679 6216,1674 L 6233,1674 C 6230,1684 6225,1692 6217,1698 6209,1704 6200,1707 6189,1707 6177,1707 6166,1703 6157,1694 6147,1684 6142,1670 6142,1654 6142,1637 6147,1623 6157,1613 6166,1604 6177,1600 6189,1600 6202,1600 6213,1604 6221,1612 6231,1622 6235,1636 6235,1653 L 6235,1659 Z M 6217,1645 C 6217,1636 6214,1629 6209,1623 6204,1617 6197,1615 6189,1615 6180,1615 6173,1618 6168,1624 6163,1631 6160,1638 6160,1645 L 6217,1645 Z"/>
        </g>
       </g>
       <g class="com.sun.star.drawing.ClosedBezierShape">
        <g id="id53">
         <rect class="BoundingBox" stroke="none" fill="none" x="6278" y="1600" width="85" height="105"/>
         <path fill="rgb(114,159,207)" stroke="none" d="M 6362,1637 L 6345,1637 C 6345,1631 6343,1626 6339,1622 6335,1618 6330,1615 6323,1615 6318,1615 6313,1617 6309,1620 6305,1624 6302,1628 6300,1633 6297,1640 6295,1649 6295,1659 L 6295,1704 6278,1704 6278,1603 6293,1603 6294,1618 C 6298,1612 6302,1608 6308,1605 6314,1602 6320,1600 6327,1600 6339,1600 6349,1605 6356,1615 6360,1621 6362,1629 6362,1637 Z"/>
        </g>
       </g>
       <g class="com.sun.star.drawing.ClosedBezierShape">
        <g id="id54">
         <rect class="BoundingBox" stroke="none" fill="none" x="6389" y="1600" width="89" height="109"/>
         <path fill="rgb(114,159,207)" stroke="none" d="M 6469,1656 C 6474,1661 6477,1667 6477,1675 6477,1683 6474,1689 6469,1695 6461,1703 6449,1707 6434,1707 6419,1707 6407,1703 6399,1695 6392,1689 6389,1681 6389,1672 L 6406,1672 C 6406,1678 6409,1683 6415,1687 6419,1691 6426,1692 6435,1692 6443,1692 6450,1690 6455,1686 6458,1684 6460,1680 6460,1676 6460,1668 6455,1663 6444,1662 L 6419,1658 C 6411,1657 6405,1654 6400,1649 6396,1644 6394,1638 6394,1631 6394,1624 6397,1617 6402,1612 6410,1604 6420,1600 6433,1600 6448,1600 6459,1605 6467,1614 6471,1619 6473,1626 6474,1633 L 6457,1633 C 6456,1628 6454,1624 6451,1621 6446,1616 6440,1614 6433,1614 6426,1614 6420,1616 6416,1619 6412,1623 6410,1626 6410,1630 6410,1637 6415,1641 6424,1643 L 6451,1647 C 6458,1648 6464,1651 6469,1656 Z"/>
        </g>
       </g>
      </g>
      <g class="Group">
       <g class="com.sun.star.drawing.PolyPolygonShape">
        <g id="id55">
         <rect class="BoundingBox" stroke="none" fill="none" x="5522" y="186" width="95" height="155"/>
         <path fill="rgb(114,159,207)" stroke="none" d="M 5616,340 L 5522,340 5522,325 5560,325 5560,202 5525,202 5525,187 5578,187 5578,325 5616,325 5616,340 Z"/>
        </g>
       </g>
       <g class="com.sun.star.drawing.PolyPolygonShape">
        <g id="id56">
         <rect class="BoundingBox" stroke="none" fill="none" x="5646" y="229" width="103" height="115"/>
         <path fill="rgb(114,159,207)" stroke="none" d="M 5747,286 L 5747,293 5746,299 5745,305 5744,308 5743,311 5742,313 5741,316 5739,318 5738,321 5736,323 5734,326 5732,328 5730,330 5727,333 5723,335 5721,337 5719,338 5717,339 5715,340 5711,341 5707,342 5702,343 5697,343 5692,343 5687,342 5683,341 5678,340 5676,339 5674,338 5672,337 5670,335 5668,334 5666,333 5663,330 5661,328 5659,326 5657,323 5656,321 5654,318 5653,316 5652,313 5650,311 5649,308 5649,305 5647,299 5647,293 5646,286 5647,280 5647,274 5649,268 5649,265 5650,262 5652,259 5653,257 5654,254 5656,252 5657,249 5659,247 5661,245 5663,243 5666,240 5668,239 5670,237 5672,236 5674,235 5676,234 5678,233 5683,232 5687,231 5692,230 5697,230 5702,230 5707,231 5711,232 5715,233 5717,234 5719,235 5721,236 5723,237 5727,240 5730,243 5732,245 5734,247 5736,249 5738,252 5739,254 5741,257 5742,259 5743,262 5744,265 5745,268 5746,273 5747,280 5747,286 Z M 5717,319 L 5718,318 5719,317 5721,315 5722,313 5723,311 5724,310 5725,308 5726,306 5726,304 5727,301 5728,297 5729,292 5729,286 5729,281 5728,276 5727,271 5726,269 5726,267 5725,265 5724,263 5723,261 5722,259 5721,258 5719,256 5718,255 5717,253 5714,252 5712,250 5710,249 5707,248 5705,247 5702,246 5700,246 5697,246 5694,246 5691,246 5689,247 5686,248 5684,249 5681,250 5679,252 5677,253 5675,255 5674,256 5673,258 5672,259 5670,261 5669,263 5669,265 5668,267 5667,269 5666,271 5665,276 5665,281 5665,286 5665,292 5665,297 5666,301 5667,303 5668,306 5669,308 5669,310 5670,311 5672,313 5673,315 5674,317 5675,318 5677,319 5679,321 5681,323 5684,324 5686,325 5689,326 5691,327 5694,327 5697,327 5700,327 5702,327 5705,326 5707,325 5710,324 5712,323 5714,321 5717,319 Z"/>
        </g>
       </g>
       <g class="com.sun.star.drawing.PolyPolygonShape">
        <g id="id57">
         <rect class="BoundingBox" stroke="none" fill="none" x="5780" y="221" width="104" height="171"/>
         <path fill="rgb(114,159,207)" stroke="none" d="M 5883,356 L 5882,359 5882,362 5882,363 5881,365 5881,366 5880,367 5880,369 5879,370 5878,373 5876,375 5874,377 5872,379 5870,380 5868,382 5866,383 5864,384 5861,385 5859,386 5856,387 5850,388 5844,389 5837,390 5830,390 5823,390 5816,389 5810,388 5805,387 5802,386 5800,385 5798,384 5795,383 5793,382 5792,381 5790,379 5788,378 5786,376 5785,374 5783,371 5783,370 5782,369 5782,368 5781,367 5781,365 5781,364 5780,362 5780,359 5780,357 5780,355 5781,353 5781,351 5782,349 5783,348 5783,346 5784,344 5786,343 5787,341 5788,340 5789,339 5791,338 5792,337 5794,336 5796,335 5794,334 5793,333 5792,333 5791,332 5789,331 5788,330 5787,329 5787,328 5786,326 5785,325 5785,324 5784,323 5784,321 5783,320 5783,318 5783,317 5783,315 5783,313 5784,312 5784,310 5785,309 5785,307 5786,306 5787,305 5788,303 5789,302 5790,301 5791,300 5793,299 5794,298 5796,297 5798,296 5796,295 5795,293 5794,292 5792,290 5791,289 5790,287 5789,285 5788,284 5788,282 5787,280 5787,278 5786,276 5786,274 5786,272 5785,268 5785,264 5786,261 5787,257 5788,254 5789,252 5789,251 5791,248 5793,245 5796,242 5797,241 5799,239 5800,238 5802,237 5804,236 5806,235 5808,234 5810,233 5812,232 5814,232 5818,231 5823,230 5828,230 5832,230 5835,230 5838,231 5842,232 5845,232 5847,234 5850,235 5853,236 5854,235 5855,233 5855,232 5857,230 5858,229 5859,228 5860,226 5862,225 5863,224 5865,224 5866,223 5868,222 5870,222 5871,222 5873,221 5875,221 5876,221 5877,221 5879,222 5881,222 5881,236 5880,236 5880,236 5879,236 5878,236 5876,236 5875,236 5874,236 5873,237 5872,237 5871,237 5870,238 5869,238 5868,239 5867,240 5866,240 5865,241 5865,242 5864,243 5864,244 5863,245 5863,246 5865,248 5866,251 5868,253 5869,256 5869,259 5870,262 5870,265 5870,268 5870,272 5870,275 5869,279 5868,282 5867,285 5865,288 5863,291 5861,294 5859,295 5857,297 5856,298 5854,299 5852,300 5850,301 5848,302 5846,303 5844,304 5842,305 5838,306 5833,306 5828,307 5826,306 5824,306 5821,306 5819,306 5817,305 5814,305 5812,304 5809,303 5808,303 5808,304 5807,304 5806,305 5805,305 5804,306 5804,306 5803,307 5802,307 5802,308 5801,309 5801,310 5801,310 5800,311 5800,311 5800,311 5800,312 5800,313 5800,314 5800,315 5800,315 5800,316 5800,317 5800,317 5801,318 5801,318 5801,319 5801,319 5802,320 5802,320 5803,320 5803,321 5804,321 5804,321 5806,322 5807,322 5808,323 5810,323 5811,323 5813,324 5814,324 5816,324 5839,324 5845,324 5851,324 5856,325 5860,326 5862,327 5864,328 5866,329 5868,330 5870,331 5871,332 5873,334 5874,335 5876,337 5877,338 5878,339 5879,341 5879,342 5880,343 5881,344 5881,346 5881,347 5882,350 5882,353 5883,356 Z M 5853,268 L 5853,266 5852,263 5852,261 5851,260 5851,259 5851,258 5850,257 5849,256 5849,255 5848,254 5847,253 5847,252 5846,251 5845,250 5844,250 5843,249 5842,248 5841,248 5840,247 5839,247 5838,246 5836,246 5833,245 5830,245 5828,245 5825,245 5822,245 5820,246 5818,246 5816,247 5815,247 5814,248 5813,248 5812,249 5811,250 5810,250 5810,251 5809,252 5808,253 5807,254 5807,255 5806,256 5805,257 5805,258 5804,259 5804,260 5804,261 5803,263 5803,266 5803,268 5803,271 5803,273 5803,274 5804,275 5804,276 5804,277 5805,279 5805,280 5806,281 5807,282 5807,283 5808,283 5810,285 5812,287 5813,288 5814,288 5815,289 5816,289 5817,290 5818,290 5820,291 5823,292 5825,292 5828,292 5830,292 5833,292 5835,291 5838,290 5839,290 5840,289 5841,289 5842,288 5843,288 5844,287 5846,285 5847,283 5848,283 5849,282 5849,281 5850,280 5850,279 5851,277 5851,276 5852,275 5852,274 5852,273 5853,271 5853,268 Z M 5865,356 L 5865,355 5865,354 5865,353 5865,352 5865,351 5864,350 5864,350 5864,349 5863,348 5863,347 5863,347 5862,346 5862,345 5861,345 5860,344 5860,344 5858,343 5857,342 5856,342 5854,341 5854,341 5853,340 5852,340 5851,340 5850,340 5849,340 5847,339 5840,339 5833,339 5831,339 5810,339 5809,339 5807,340 5806,341 5805,342 5804,342 5803,343 5801,344 5800,345 5800,347 5799,348 5798,349 5798,350 5797,352 5797,353 5797,354 5797,356 5797,358 5797,359 5797,361 5797,361 5798,362 5798,363 5798,363 5799,364 5799,365 5800,365 5800,366 5801,367 5802,368 5803,369 5804,370 5806,370 5807,371 5809,372 5812,373 5816,374 5820,374 5825,374 5831,375 5836,374 5841,374 5845,373 5849,373 5852,372 5854,371 5855,370 5857,370 5858,369 5859,368 5860,367 5861,366 5862,364 5863,363 5863,362 5864,362 5864,361 5864,360 5865,360 5865,359 5865,358 5865,357 5865,357 5865,356 Z"/>
        </g>
       </g>
       <g class="com.sun.star.drawing.PolyPolygonShape">
        <g id="id58">
         <rect class="BoundingBox" stroke="none" fill="none" x="5917" y="186" width="98" height="155"/>
         <path fill="rgb(114,159,207)" stroke="none" d="M 5977,212 L 5952,212 5952,187 5977,187 5977,212 Z M 6014,340 L 5918,340 5918,325 5956,325 5956,248 5922,248 5922,233 5975,233 5975,325 6014,325 6014,340 Z"/>
        </g>
       </g>
       <g class="com.sun.star.drawing.PolyPolygonShape">
        <g id="id59">
         <rect class="BoundingBox" stroke="none" fill="none" x="6047" y="229" width="91" height="112"/>
         <path fill="rgb(114,159,207)" stroke="none" d="M 6137,340 L 6118,340 6118,272 6118,269 6118,266 6117,263 6117,261 6116,258 6115,256 6114,254 6112,253 6111,251 6109,250 6107,249 6105,248 6103,247 6100,247 6098,246 6095,246 6093,246 6091,247 6089,247 6087,247 6086,248 6084,249 6082,250 6081,251 6079,252 6078,254 6076,255 6075,257 6074,258 6073,260 6072,262 6071,263 6069,266 6069,269 6068,272 6067,275 6067,279 6066,283 6066,287 6066,291 6066,340 6048,340 6048,233 6064,233 6065,249 6066,247 6068,245 6069,243 6071,241 6073,239 6075,238 6077,236 6079,235 6082,234 6084,233 6086,232 6089,231 6091,231 6094,230 6096,230 6099,230 6103,230 6107,231 6111,231 6113,232 6115,233 6116,233 6118,234 6120,235 6121,236 6123,237 6124,238 6125,239 6127,240 6128,242 6129,243 6130,245 6131,246 6132,248 6133,249 6134,251 6134,253 6135,257 6136,261 6137,265 6137,269 6137,340 Z"/>
        </g>
       </g>
      </g>
      <g class="Group">
       <g class="com.sun.star.drawing.PolyPolygonShape">
        <g id="id60">
         <rect class="BoundingBox" stroke="none" fill="none" x="5408" y="1186" width="117" height="158"/>
         <path fill="rgb(114,159,207)" stroke="none" d="M 5520,1229 L 5520,1233 5521,1237 5522,1245 5523,1255 5523,1265 5523,1275 5522,1285 5521,1293 5520,1297 5520,1301 5519,1305 5517,1308 5516,1312 5514,1315 5512,1318 5510,1321 5508,1324 5505,1327 5501,1330 5496,1334 5492,1337 5489,1338 5487,1339 5484,1340 5482,1341 5479,1341 5477,1342 5471,1343 5466,1343 5460,1343 5455,1342 5452,1341 5450,1341 5447,1340 5445,1339 5442,1338 5440,1337 5435,1334 5431,1330 5427,1327 5424,1324 5421,1321 5419,1318 5417,1315 5415,1312 5414,1308 5413,1305 5412,1301 5411,1297 5410,1293 5409,1285 5408,1275 5408,1265 5408,1255 5409,1245 5410,1237 5411,1233 5412,1229 5413,1225 5414,1222 5415,1218 5417,1215 5419,1212 5421,1209 5424,1206 5427,1203 5431,1199 5435,1196 5440,1193 5442,1192 5445,1191 5447,1190 5450,1189 5452,1189 5455,1188 5460,1187 5466,1187 5471,1187 5477,1188 5479,1189 5482,1189 5484,1190 5487,1191 5489,1192 5492,1193 5496,1196 5501,1199 5505,1203 5508,1206 5510,1209 5512,1212 5514,1215 5516,1218 5517,1222 5519,1225 5520,1229 Z M 5503,1278 L 5504,1265 5503,1252 5503,1250 5503,1247 5502,1240 5502,1236 5501,1235 5501,1233 5500,1231 5500,1230 5499,1228 5499,1227 5498,1225 5497,1224 5497,1222 5496,1221 5495,1220 5494,1219 5493,1218 5492,1216 5489,1214 5486,1211 5485,1210 5483,1209 5481,1209 5480,1208 5478,1207 5476,1207 5475,1206 5473,1206 5471,1205 5469,1205 5466,1205 5462,1205 5460,1205 5458,1206 5457,1206 5455,1207 5453,1207 5452,1208 5450,1209 5448,1209 5447,1210 5445,1211 5442,1214 5440,1216 5439,1218 5438,1219 5437,1220 5436,1221 5435,1222 5434,1224 5433,1225 5433,1227 5432,1228 5431,1230 5431,1231 5431,1233 5430,1235 5430,1236 5429,1240 5428,1247 5428,1250 5428,1252 5428,1265 5428,1278 5428,1280 5428,1283 5429,1290 5430,1294 5430,1295 5431,1297 5431,1299 5431,1300 5432,1302 5433,1303 5433,1305 5434,1306 5435,1307 5436,1309 5437,1310 5438,1311 5439,1312 5440,1314 5442,1316 5445,1319 5447,1320 5448,1320 5450,1321 5452,1322 5453,1323 5455,1323 5457,1324 5458,1324 5460,1325 5462,1325 5466,1325 5469,1325 5471,1325 5473,1324 5475,1324 5476,1323 5478,1323 5480,1322 5481,1321 5483,1320 5485,1320 5486,1319 5489,1316 5492,1314 5493,1312 5494,1311 5495,1310 5496,1309 5497,1307 5497,1306 5498,1305 5499,1303 5499,1302 5500,1300 5500,1299 5501,1297 5501,1295 5502,1294 5502,1290 5503,1283 5503,1280 5503,1278 Z"/>
        </g>
       </g>
       <g class="com.sun.star.drawing.PolyPolygonShape">
        <g id="id61">
         <rect class="BoundingBox" stroke="none" fill="none" x="5536" y="1189" width="123" height="153"/>
         <path fill="rgb(114,159,207)" stroke="none" d="M 5657,1207 L 5606,1207 5606,1340 5587,1340 5587,1207 5536,1207 5536,1190 5657,1190 5657,1207 Z"/>
        </g>
       </g>
       <g class="com.sun.star.drawing.PolyPolygonShape">
        <g id="id62">
         <rect class="BoundingBox" stroke="none" fill="none" x="5682" y="1189" width="107" height="152"/>
         <path fill="rgb(114,159,207)" stroke="none" d="M 5788,1235 L 5788,1240 5787,1245 5786,1250 5785,1254 5784,1256 5783,1258 5782,1260 5781,1262 5780,1264 5778,1265 5777,1267 5775,1269 5774,1270 5772,1272 5770,1273 5768,1274 5766,1275 5764,1277 5761,1278 5759,1278 5754,1280 5748,1281 5743,1281 5736,1282 5701,1282 5701,1340 5682,1340 5682,1190 5736,1190 5743,1190 5749,1191 5754,1192 5757,1192 5760,1193 5762,1194 5764,1195 5767,1196 5769,1198 5771,1199 5773,1201 5775,1202 5776,1204 5779,1207 5781,1211 5783,1214 5785,1218 5786,1222 5787,1226 5788,1231 5788,1235 Z M 5768,1235 L 5768,1232 5768,1229 5768,1227 5767,1226 5767,1224 5766,1223 5766,1222 5765,1220 5764,1219 5763,1218 5762,1217 5762,1216 5761,1215 5759,1214 5757,1212 5755,1211 5752,1210 5749,1209 5746,1208 5743,1207 5739,1207 5736,1207 5701,1207 5701,1265 5736,1265 5740,1264 5743,1264 5747,1264 5750,1263 5753,1262 5754,1261 5755,1260 5757,1260 5758,1259 5759,1258 5760,1257 5761,1256 5762,1255 5763,1254 5764,1253 5764,1252 5765,1251 5766,1249 5766,1248 5767,1247 5767,1245 5768,1242 5768,1239 5768,1235 Z"/>
        </g>
       </g>
      </g>
     </g>
    </g>
   </g>
  </g>
 </g>
</svg>